<svg xmlns="http://www.w3.org/2000/svg" width="18.707" height="20" viewBox="0 0 18.707 20">
  <g id="share_icon" data-name="share (4)" transform="translate(-3 -2)">
    <g id="Group_69" data-name="Group 69" transform="translate(31)">
      <path id="share_icon_fill" data-name="Path 173" d="M28.65,13.819a3.631,3.631,0,0,0-5.123,0,1.9,1.9,0,0,0-.282.329L18,11.257a3.664,3.664,0,0,0,.235-1.246A3.175,3.175,0,0,0,18,8.766l5.217-2.914a4.092,4.092,0,0,0,.282.329,3.619,3.619,0,0,0,6.181-2.562,3.619,3.619,0,1,0-7.239,0,3.965,3.965,0,0,0,.188,1.175L17.416,7.732c-.071-.094-.165-.188-.235-.282a3.623,3.623,0,0,0-5.123,5.123,3.545,3.545,0,0,0,2.562,1.058,3.585,3.585,0,0,0,2.562-1.058,2.489,2.489,0,0,0,.235-.282l5.241,2.914a3.846,3.846,0,0,0-.188,1.175,3.619,3.619,0,1,0,6.181-2.562ZM24.4,1.927a2.376,2.376,0,0,1,1.716-.705,2.519,2.519,0,0,1,1.716.705,2.376,2.376,0,0,1,.705,1.716,2.519,2.519,0,0,1-.705,1.716,2.376,2.376,0,0,1-1.716.705A2.519,2.519,0,0,1,24.4,5.358a1.761,1.761,0,0,1-.353-.47c-.024-.047-.024-.071-.047-.118-.024-.024-.047-.071-.071-.094a2.475,2.475,0,0,1-.235-1.034A2.25,2.25,0,0,1,24.4,1.927Zm-8.061,9.8a2.376,2.376,0,0,1-1.716.705,2.519,2.519,0,0,1-1.716-.705,2.376,2.376,0,0,1-.705-1.716A2.417,2.417,0,0,1,12.9,8.3a2.376,2.376,0,0,1,1.716-.705,2.519,2.519,0,0,1,1.716.705,2.376,2.376,0,0,1,.705,1.716A2.519,2.519,0,0,1,16.335,11.727ZM27.8,18.12a2.376,2.376,0,0,1-1.716.705,2.519,2.519,0,0,1-1.716-.705,2.376,2.376,0,0,1-.705-1.716A2.475,2.475,0,0,1,23.9,15.37a.324.324,0,0,0,.071-.094c.024-.047.047-.071.047-.118a2.235,2.235,0,0,1,.353-.47,2.417,2.417,0,0,1,1.716-.705,2.519,2.519,0,0,1,1.716.705,2.376,2.376,0,0,1,.705,1.716A2.519,2.519,0,0,1,27.8,18.12Z" transform="translate(-39 2)" fill="rgba(0,0,0,0.54)"/>
    </g>
  </g>
</svg>
