<svg xmlns="http://www.w3.org/2000/svg" width="30" height="30" viewBox="0 0 30 30">
  <g id="Page-1" transform="translate(-290.983 -535.953)">
    <g id="YouTube">
      <path id="Oval-1" d="M320.983,550.953a15,15,0,1,0-15,15A15,15,0,0,0,320.983,550.953Zm-1.8,0a13.2,13.2,0,1,0-13.2,13.2A13.2,13.2,0,0,0,319.183,550.953Zm-6.139,3.459a1.849,1.849,0,0,1-1.582,1.438,74.067,74.067,0,0,1-10.96,0,1.849,1.849,0,0,1-1.581-1.438,23.457,23.457,0,0,1,0-6.919,1.846,1.846,0,0,1,1.581-1.437,74.067,74.067,0,0,1,10.96,0,1.846,1.846,0,0,1,1.582,1.437,23.642,23.642,0,0,1,0,6.919Zm-8.378-6.159,4.05,2.338-4.05,2.338Z" fill="#fff" fill-rule="evenodd"/>
    </g>
  </g>
</svg>
