<svg xmlns="http://www.w3.org/2000/svg" width="31.002" height="31.011" viewBox="0 0 31.002 31.011">
  <g id="Group_418" data-name="Group 418" transform="translate(-290.483 -571.444)">
    <path id="Union_1" data-name="Union 1" d="M-877.012-8923.41a15.034,15.034,0,0,1,15.2-14.646,15.036,15.036,0,0,1,14.8,15.411,15,15,0,0,1-15,14.6h-.072A15.006,15.006,0,0,1-877.012-8923.41Zm1.824.354a13.2,13.2,0,0,0,12.907,13.237,13.152,13.152,0,0,0,13.43-13.212,13.205,13.205,0,0,0-12.912-13.262l-.254,0A13.24,13.24,0,0,0-875.189-8923.056Zm9.242,9.579a5.575,5.575,0,0,1-4.931-2.775,4.349,4.349,0,0,1-.651-2.319c-.007-2.857-.031-5.718.007-8.571a4.906,4.906,0,0,1,2.5-4.23,5.762,5.762,0,0,1,3.165-.891c2.488-.009,4.973-.031,7.461,0a5.582,5.582,0,0,1,5.049,2.871,4.454,4.454,0,0,1,.608,2.27c-.007,1.421,0,2.847,0,4.27,0,1.31-.036,2.631.007,3.941a5.293,5.293,0,0,1-4.13,5.23,6.258,6.258,0,0,1-1.451.2c-1.506.011-3.013.023-4.519.023Q-864.387-8913.453-865.947-8913.477Zm.1-17.392a5.448,5.448,0,0,0-1.476.24,3.889,3.889,0,0,0-2.829,3.876c.043,1.3.007,2.6.007,3.89v4.123a3.271,3.271,0,0,0,.361,1.565,4.19,4.19,0,0,0,3.908,2.3c2.485.035,4.978.018,7.465,0a5.134,5.134,0,0,0,1.274-.18,3.964,3.964,0,0,0,3.017-3.979c-.061-2.649-.011-5.3-.011-7.947a3.347,3.347,0,0,0-.393-1.649,4.231,4.231,0,0,0-3.887-2.238q-1.654-.023-3.305-.022Q-863.78-8930.891-865.846-8930.868Zm-.686,7.658a4.375,4.375,0,0,1,4.4-4.352,4.391,4.391,0,0,1,4.437,4.355,4.408,4.408,0,0,1-4.412,4.359h-.013A4.384,4.384,0,0,1-866.532-8923.21Zm4.4-2.957a3,3,0,0,0-3,2.968,3.011,3.011,0,0,0,3.022,2.957,3.006,3.006,0,0,0,3.022-2.952,3.013,3.013,0,0,0-3.027-2.973Zm4.015-1.747a.959.959,0,0,1,.9-.98.969.969,0,0,1,.969.951.971.971,0,0,1-.909.98h-.034A.951.951,0,0,1-858.116-8927.914Z" transform="translate(1168 9510)" fill="#fff" stroke="rgba(0,0,0,0)" stroke-miterlimit="10" stroke-width="1"/>
  </g>
</svg>
