<svg xmlns="http://www.w3.org/2000/svg" width="30" height="30" viewBox="0 0 30 30">
  <g id="Page-1" transform="translate(-290.983 -607.943)">
    <g id="Pinterest">
      <path id="Oval-1" d="M305.983,607.943a15,15,0,1,0,15,15A15,15,0,0,0,305.983,607.943Zm0,1.8a13.2,13.2,0,1,0,13.2,13.2A13.2,13.2,0,0,0,305.983,609.743Zm-5.7,11c0,1.541.551,2.912,1.732,3.423a.289.289,0,0,0,.424-.224c.039-.158.131-.554.173-.72a.453.453,0,0,0-.122-.5,2.68,2.68,0,0,1-.558-1.757,4.127,4.127,0,0,1,4.164-4.292,3.252,3.252,0,0,1,3.52,3.434c0,2.584-1.08,4.764-2.682,4.764a1.366,1.366,0,0,1-1.335-1.726,20.206,20.206,0,0,0,.747-3.179c0-.734-.372-1.346-1.141-1.346-.9,0-1.631.992-1.631,2.32a3.614,3.614,0,0,0,.27,1.418l-1.088,4.882a10.638,10.638,0,0,0-.026,3.406.111.111,0,0,0,.2.051,9.7,9.7,0,0,0,1.527-2.932c.1-.4.6-2.463.6-2.463a2.392,2.392,0,0,0,2.066,1.116c2.72,0,4.564-2.626,4.564-6.141a5.187,5.187,0,0,0-5.355-5.133A5.741,5.741,0,0,0,300.283,620.741Z" fill="#fff" fill-rule="evenodd"/>
    </g>
  </g>
</svg>
