<svg xmlns="http://www.w3.org/2000/svg" width="30" height="30" viewBox="0 0 30 30">
  <path id="Oval-1" d="M306,457.967a15,15,0,1,0-15-15A15,15,0,0,0,306,457.967Zm0-1.8a13.2,13.2,0,1,0-13.2-13.2A13.2,13.2,0,0,0,306,456.167Zm-.191-15.867.029.493-.477-.061a7.632,7.632,0,0,1-4.54-2.334l-.629-.654-.163.483a3,3,0,0,0,.592,2.978c.381.423.295.483-.363.232-.229-.081-.429-.141-.448-.111a3.733,3.733,0,0,0,.343,1.348,3.135,3.135,0,0,0,1.307,1.288l.467.232-.553.01c-.534,0-.553.01-.5.221a2.937,2.937,0,0,0,1.784,1.651l.591.211-.515.322a5.2,5.2,0,0,1-2.556.745,2.726,2.726,0,0,0-.782.08,7.132,7.132,0,0,0,1.841.886,7.752,7.752,0,0,0,6.257-.745,8.665,8.665,0,0,0,3.176-3.9,10.79,10.79,0,0,0,.648-3.019c0-.463.029-.524.563-1.077a6.52,6.52,0,0,0,.668-.775c.1-.191.085-.191-.4-.02-.811.3-.925.262-.525-.191a2.951,2.951,0,0,0,.649-1.077c0-.03-.143.02-.3.111a5.275,5.275,0,0,1-.84.342l-.515.171-.467-.332a3.844,3.844,0,0,0-.811-.443,3.122,3.122,0,0,0-1.669.04,2.886,2.886,0,0,0-1.86,2.9Z" transform="translate(-291 -427.967)" fill="#fff" fill-rule="evenodd"/>
</svg>
