<svg xmlns="http://www.w3.org/2000/svg" width="30" height="30" viewBox="0 0 30 30">
  <g id="Group_417" data-name="Group 417" transform="translate(-852 -4394.434)">
    <path id="Oval-1" d="M306,492.934a15,15,0,1,0-15-15A15,15,0,0,0,306,492.934Zm0-1.8a13.2,13.2,0,1,0-13.2-13.2A13.2,13.2,0,0,0,306,491.134Z" transform="translate(561 3931.5)" fill="#fff" fill-rule="evenodd"/>
    <g id="linkedin_social_media_icons_" data-name="linkedin , social , media, icons," transform="translate(561 3931.5)">
      <g id="Group_394" data-name="Group 394">
        <path id="Union_2" data-name="Union 2" d="M-729.121-9033.609v-4.313c0-1.054.011-2.4-1.442-2.4s-1.56,1.138-1.56,2.318v4.4h-2.752v-9.063h2.439v1.188h.12a3.163,3.163,0,0,1,2.65-1.146c2.309,0,3.052,1.1,3.26,2.811a12.039,12.039,0,0,1,.034,1.335v4.877Zm-10.878,0v-9.063h3.313v9.063Zm.168-11.879a1.578,1.578,0,0,1,1.578-1.578,1.578,1.578,0,0,1,1.578,1.578,1.578,1.578,0,0,1-1.578,1.578A1.578,1.578,0,0,1-739.831-9045.488Z" transform="translate(1039.185 9518.271)" fill="#fff" stroke="rgba(0,0,0,0)" stroke-miterlimit="10" stroke-width="1"/>
      </g>
    </g>
  </g>
</svg>
