<svg width="29" height="29" viewBox="0 0 29 29" fill="none" xmlns="http://www.w3.org/2000/svg">
<path d="M9.23497 12.7395L14.6237 7.07086L20.0152 12.7386L23.151 9.4398L14.6237 0.473267L6.09912 9.44068L9.23497 12.7395Z" fill="#F3BA2F"/>
<path d="M7.06869 14.6261L3.77051 11.3279L0.471704 14.6267L3.76988 17.925L7.06869 14.6261Z" fill="#F3BA2F"/>
<path d="M9.23497 16.512L14.6237 22.1797L20.0152 16.512L23.1528 19.8063L14.6229 28.7773L6.09912 19.8063V19.8019L9.23497 16.512Z" fill="#F3BA2F"/>
<path d="M25.4815 17.9259L28.7803 14.627L25.4822 11.3286L22.1834 14.6276L25.4815 17.9259Z" fill="#F3BA2F"/>
<path d="M17.9698 14.6236L14.6223 11.2761L12.1489 13.7496L11.8646 14.0338L11.2784 14.6201L11.2739 14.6245L11.2784 14.6289L14.6223 17.9729L17.9698 14.6254V14.6236Z" fill="#F3BA2F"/>
</svg>
