<svg xmlns="http://www.w3.org/2000/svg" xmlns:xlink="http://www.w3.org/1999/xlink" width="16" height="16" viewBox="0 0 16 16">
  <defs>
    <clipPath id="clip-path">
      <rect id="Rectangle_1307" data-name="Rectangle 1307" width="16" height="16" transform="translate(332 1878)" fill="#fff" stroke="#707070" stroke-width="1"/>
    </clipPath>
  </defs>
  <g id="cryptocom" transform="translate(-332 -1878)" clip-path="url(#clip-path)">
    <g id="crypto-com-mco-logo" transform="translate(332 1878)">
      <circle id="Ellipse_185" data-name="Ellipse 185" cx="8" cy="8" r="8" fill="#103f68"/>
      <path id="Path_16506" data-name="Path 16506" d="M8.6,2.979l4.76,2.741v5.5L8.6,13.97l-.039-.009-4.707-2.74v-5.5L8.566,2.979H8.6Zm-.016.569L4.359,6.008v4.925l4.224,2.46.516-.3,3.76-2.163V6.009L9.1,3.834Zm-3.57,5.3,1.25-.935,1.105.706v1.27l.837.806v.378l-.806.755H6.719l-1.7-2.98Zm3.951,2.226,0-.38L9.8,9.894V8.624l1.094-.715,1.248.944-1.7,2.971H9.77ZM7.78,8.624,7.373,7.559H9.792l-.4,1.066.118,1.191-.933,0-.923,0Zm.8-1.358h-2.3l.427-1.91h3.732l.45,1.912Z" transform="translate(-0.609 -0.47)" fill="#fff"/>
    </g>
  </g>
</svg>
