<?xml version="1.0" encoding="UTF-8"?><svg id="a" xmlns="http://www.w3.org/2000/svg" viewBox="0 0 29 29"><path d="M27.24,8.11s-.68-1.08-3.05-.47c-2.26,.58-15.67,7.8-16.25,8.12l-.51,.36L1.58,13.22s-.1-.02-.15,0l-1.12,.55s-.08,.07-.09,.12c0,.05,0,.1,.04,.14l3.89,4.39-1.38,.97c-.06,.04-.08,.11-.07,.17l.12,.53c.02,.09,.11,.15,.2,.13l7.04-1.55-1.82,1.62c-.06,.05-.07,.13-.04,.2,.03,.07,.11,.1,.18,.09l1.71-.38s.05-.02,.07-.03l5.18-4.1s.06,0,.08-.02c4.34-2.3,9.61-5.1,10.09-5.42,.79-.52,1.92-1.91,1.74-2.48,0-.01,0-.02-.02-.04h0ZM1.5,13.56l5.62,2.78-2.7,1.89L.65,13.97l.85-.41Zm12.3,2.22l4.69-2.63-8.51,6.73-1.05,.23,4.87-4.33Zm11.53-5.42c-.34,.22-3.32,1.83-8.65,4.65l3.66-2.9c.07-.05,.08-.15,.04-.22-.05-.07-.14-.1-.22-.05l-6.54,3.66s-.02,.01-.03,.02l-3.03,2.7-7.46,1.64-.06-.26,1.44-1.01h0l3.05-2.13h0l.57-.4c.14-.08,13.94-7.51,16.16-8.08,1.93-.5,2.58,.19,2.67,.3,.06,.35-.83,1.57-1.61,2.08h0Zm-13.22,4.55c.14,.28,.03,.62-.25,.76-.28,.14-.62,.03-.76-.25-.14-.28-.03-.62,.25-.76,.28-.14,.62-.03,.76,.25h0Zm1.51-.76c.14,.28,.03,.62-.25,.76-.28,.14-.62,.03-.76-.25-.14-.28-.03-.62,.25-.76,.28-.14,.62-.03,.76,.25h0Zm1.51-.76c.14,.28,.03,.62-.25,.76-.28,.14-.62,.03-.76-.25-.14-.28-.03-.62,.25-.76,.28-.14,.62-.03,.76,.25h0Zm1.51-.76c.14,.28,.03,.62-.25,.76-.28,.14-.62,.03-.76-.25-.14-.28-.03-.62,.25-.76,.28-.14,.62-.03,.76,.25h0Zm1.51-.76c.14,.28,.03,.62-.25,.76-.28,.14-.62,.03-.76-.25-.14-.28-.03-.62,.25-.76,.28-.14,.62-.03,.76,.25h0Zm1.51-.76c.14,.28,.03,.62-.25,.76-.28,.14-.62,.03-.76-.25-.14-.28-.03-.62,.25-.76,.28-.14,.62-.03,.76,.25h0Zm1.51-.77c.14,.28,.03,.62-.25,.76-.28,.14-.62,.03-.76-.25-.14-.28-.03-.62,.25-.76,.28-.14,.62-.03,.76,.25h0Zm1.51-.76c.14,.28,.03,.62-.25,.76-.28,.14-.62,.03-.76-.25-.14-.28-.03-.62,.25-.76,.28-.14,.62-.03,.76,.25h0Z"/></svg>