<?xml version="1.0" encoding="UTF-8"?><svg id="a" xmlns="http://www.w3.org/2000/svg" viewBox="0 0 29 29"><path d="M1.9,20.23s.01,.02,.02,.03c.35,.48,2.15,.39,3.03,.06,.54-.2,5.91-2.8,10.33-4.94,.03-.01,.05-.03,.06-.06l6.37-1.76s.05-.02,.07-.04l1.32-1.16c.06-.05,.07-.13,.04-.2-.03-.07-.11-.1-.18-.09l-2.38,.51,5.42-4.77c.07-.06,.08-.17,.01-.24l-.36-.41c-.04-.05-.12-.07-.18-.05l-1.6,.54-1.25-5.73c-.01-.05-.05-.09-.09-.12-.05-.02-.1-.02-.15,0l-1.1,.58s-.08,.07-.09,.12l-1.12,6.44-.59,.2c-.6,.29-14.35,6.83-16.16,8.31-1.89,1.55-1.44,2.69-1.42,2.73h0ZM22.34,2.24l1.21,5.55-3.12,1.06,1.08-6.18,.83-.44Zm.05,10.31l-.81,.71-10.45,2.89,4.89-2.23,6.37-1.37ZM4.84,20.01c-.87,.33-2.38,.32-2.63,.07-.04-.14-.21-1.07,1.33-2.33,1.77-1.45,15.93-8.19,16.07-8.26l.66-.23h0l3.53-1.2h0l1.67-.57,.17,.2-5.74,5.05-3.96,.85s-.02,0-.03,.01l-6.82,3.11c-.08,.04-.12,.13-.09,.21,.03,.08,.12,.13,.2,.1l4.5-1.24c-5.42,2.63-8.48,4.09-8.86,4.23h0Zm11.48-7.98c-.14-.28-.03-.62,.25-.76,.28-.14,.62-.03,.76,.25,.14,.28,.03,.62-.25,.76-.28,.14-.62,.03-.76-.25h0Zm-1.51,.77c-.14-.28-.03-.62,.25-.76,.28-.14,.62-.03,.76,.25,.14,.28,.03,.62-.25,.76-.28,.14-.62,.03-.76-.25h0Zm-1.51,.77c-.14-.28-.03-.62,.25-.76,.28-.14,.62-.03,.76,.25,.14,.28,.03,.62-.25,.76-.28,.14-.62,.03-.76-.25h0Zm-1.51,.77c-.14-.28-.03-.62,.25-.76,.28-.14,.62-.03,.76,.25,.14,.28,.03,.62-.25,.76-.28,.14-.62,.03-.76-.25h0Zm-1.51,.77c-.14-.28-.03-.62,.25-.76,.28-.14,.62-.03,.76,.25,.14,.28,.03,.62-.25,.76-.28,.14-.62,.03-.76-.25h0Zm-1.51,.77c-.14-.28-.03-.62,.25-.76,.28-.14,.62-.03,.76,.25,.14,.28,.03,.62-.25,.76-.28,.14-.62,.03-.76-.25h0Zm-1.51,.77c-.14-.28-.03-.62,.25-.76,.28-.14,.62-.03,.76,.25,.14,.28,.03,.62-.25,.76-.28,.14-.62,.03-.76-.25h0Zm-1.51,.77c-.14-.28-.03-.62,.25-.76,.28-.14,.62-.03,.76,.25,.14,.28,.03,.62-.25,.76-.28,.14-.62,.03-.76-.25h0Z"/></svg>