<?xml version="1.0" encoding="UTF-8"?><svg id="a" xmlns="http://www.w3.org/2000/svg" viewBox="0 0 29 29"><path d="M25.48,21.67c-.46-.32-2.97-3.35-3.59-3.21-.72,.04-2.13-.28-2.28,.78-.34-.24-.61-.56-.78-.92h0c.99-.42,.61-2.12,.68-2.94-.02-.96-.86-1.37-1.73-1.27-.08-3.96,.87-6.11-4.26-5.72V3.82c.97-.3,.75-1.78-.27-1.77-.48,.1-4.73-.26-5,.27-.48,.45-.27,1.33,.37,1.51v4.58c-1.79-.04-4.15-.28-4.26,2.18v11.79c0,1.2,.98,2.18,2.17,2.18-.06,.69,.07,1.42,.91,1.45,.84-.04,.96-.76,.91-1.45h5.45c-.06,.69,.07,1.42,.91,1.45,.84-.03,.96-.76,.91-1.45,3.06-.06,2-4.17,2.17-6.08h.32c.28,.69,.81,1.26,1.49,1.62,.01,.42-.09,1.04,.28,1.34,.02,.02,2.91,2.9,2.92,2.92,1.01,.97,2-.76,2.68-1.31h0c.38-.36,.38-1.01,0-1.37h0ZM8.89,2.77c.1,.09,4.73-.22,4.53,.18,.2,.4-4.46,.09-4.53,.18-.22,0-.22-.36,0-.36Zm.45,1.09h3.45v4.54h-3.45V3.86Zm-1.73,21.23c0,.22-.36,.22-.36,0v-.55h.36v.55Zm7.08,.18c-.29,.01-.15-.57-.18-.73h.36v.55h0c0,.1-.08,.18-.18,.18h0Zm2.36-2.9c.01,.78-.67,1.47-1.45,1.45H6.53c-.38,0-.75-.15-1.03-.43-.88-.09-.24-12.23-.43-12.82-.01-.78,.67-1.47,1.45-1.45H15.6c.78-.01,1.47,.67,1.45,1.45v11.79Zm.73-4.62v-2.9c.43-.02,.99-.03,1,.54-.05,.3,.14,2-.15,2.19h0c.03-.85-.94-.63-.71,.17h-.14Zm2.61,3.17c-.11-.08-.05-.43-.07-.55,.21,.05,.43,.09,.66,.1,.87,.48,.96-1.11,.04-.72-.24-.02-.48-.06-.69-.13,0-.16-.02-.42,.2-.41h1.36c.09-.08,1.26,1.21,1.33,1.25l-1.65,1.65-1.15-1.15-.03-.03Zm4.58,1.62c-1.81,1.68-1.05,1.89-2.89,.08l1.65-1.65,1.23,1.23c.09,.09,.09,.25,0,.34Z"/><path d="M11.07,11.12c-.2,0-.36,.16-.36,.36v9.98h0c0,.47,.73,.47,.73,0V11.48c0-.19-.17-.37-.36-.36h0Zm-3.63,0c-.2,0-.36,.16-.36,.36v9.98c0,.2,.16,.36,.36,.36s.36-.16,.36-.36V11.48c0-.19-.17-.37-.36-.36h0Zm7.26,0c-.2,0-.36,.16-.36,.36v9.98c0,.2,.16,.36,.36,.36s.36-.16,.36-.36V11.48c0-.19-.17-.37-.36-.36h0Zm-5.45,0c-.2,0-.36,.16-.36,.36v9.98c0,.2,.16,.36,.36,.36s.36-.16,.36-.36V11.48c0-.2-.16-.36-.36-.36Zm3.63,0c-.2,0-.36,.16-.36,.36v9.98h0c0,.47,.73,.47,.73,0V11.48c0-.2-.16-.36-.36-.36h0Z"/><path d="M10.16,9.49c-5.45,.03-4.69-.73-4.71,4.71,0,.47,.73,.47,.73,0v-3.62c0-.2,.16-.36,.36-.36h3.63c.46,0,.46-.72,0-.73h0Z"/></svg>