<?xml version="1.0" encoding="UTF-8"?><svg id="a" xmlns="http://www.w3.org/2000/svg" viewBox="0 0 29 29"><path d="M23.72,24.62H5.28c-1.74,0-3.16-1.42-3.16-3.16V10.21c0-1.74,1.42-3.16,3.16-3.16H23.72c1.74,0,3.16,1.42,3.16,3.16v11.25c0,1.74-1.42,3.16-3.16,3.16ZM5.28,8.08c-1.17,0-2.13,.95-2.13,2.13v11.25c0,1.17,.95,2.13,2.13,2.13H23.72c1.17,0,2.13-.95,2.13-2.13V10.21c0-1.17-.95-2.13-2.13-2.13H5.28Z"/><path d="M19.27,7.68h-1.03v-1.61c0-.35-.47-.66-1-.66h-5.48c-.53,0-1,.31-1,.66v1.61h-1.03v-1.61c0-.93,.91-1.69,2.03-1.69h5.48c1.12,0,2.03,.76,2.03,1.69v1.61Z"/><path d="M9.25,24.58h-3.44V7.09h3.44V24.58Zm-2.41-1.03h1.37V8.13h-1.37v15.42Z"/><path d="M23.6,24.58h-3.44V7.09h3.44V24.58Zm-2.41-1.03h1.37V8.13h-1.37v15.42Z"/></svg>